<svg width="16" height="16" viewBox="0 0 16 16" fill="none" xmlns="http://www.w3.org/2000/svg">
<g clip-path="url(#clip0_1039_465)">
<path d="M7.99998 1.33333C11.682 1.33333 14.6666 4.318 14.6666 8C14.6666 11.682 11.682 14.6667 7.99998 14.6667C4.31798 14.6667 1.33331 11.682 1.33331 8H2.66665C2.66665 10.9453 5.05465 13.3333 7.99998 13.3333C10.9453 13.3333 13.3333 10.9453 13.3333 8C13.3333 5.05466 10.9453 2.66666 7.99998 2.66666C6.16665 2.66666 4.54931 3.59133 3.58998 4.99999H5.33331V6.33333H1.33331V2.33333H2.66665V3.99999C3.88265 2.37999 5.81931 1.33333 7.99998 1.33333ZM8.66665 4.66666V7.72333L10.8286 9.88533L9.88531 10.8287L7.33331 8.27533V4.66666H8.66665Z" fill="white"/>
</g>
<defs>
<clipPath id="clip0_1039_465">
<rect width="16" height="16" fill="white"/>
</clipPath>
</defs>
</svg>
