<svg width="16" height="16" viewBox="0 0 16 16" fill="none" xmlns="http://www.w3.org/2000/svg">
<g clip-path="url(#clip0_1039_492)">
<path d="M8.00001 1.33333C11.68 1.33333 14.6667 4.32 14.6667 8C14.6667 11.68 11.68 14.6667 8.00001 14.6667C4.32001 14.6667 1.33334 11.68 1.33334 8C1.33334 4.32 4.32001 1.33333 8.00001 1.33333ZM4.01534 10.2773C4.99401 11.7373 6.46334 12.6667 8.10668 12.6667C9.74934 12.6667 11.2193 11.738 12.1973 10.2773C11.0878 9.2404 9.62531 8.66454 8.10668 8.66667C6.58782 8.66437 5.12502 9.24024 4.01534 10.2773ZM8.00001 7.33333C8.53044 7.33333 9.03915 7.12262 9.41422 6.74755C9.7893 6.37247 10 5.86377 10 5.33333C10 4.8029 9.7893 4.29419 9.41422 3.91912C9.03915 3.54405 8.53044 3.33333 8.00001 3.33333C7.46958 3.33333 6.96087 3.54405 6.5858 3.91912C6.21072 4.29419 6.00001 4.8029 6.00001 5.33333C6.00001 5.86377 6.21072 6.37247 6.5858 6.74755C6.96087 7.12262 7.46958 7.33333 8.00001 7.33333Z" fill="#2F82FF"/>
</g>
<defs>
<clipPath id="clip0_1039_492">
<rect width="16" height="16" fill="white"/>
</clipPath>
</defs>
</svg>
